<svg xmlns="http://www.w3.org/2000/svg" viewBox="0 0 48 48" id="noodle"><path fill-rule="evenodd" d="m4,20.99v.02c0,.29.03.58.09.86.34,2.51,1.93,10.25,8.93,14.41.06.79.43,3.08,2.46,4.99,1.57,1.46,4.17,2.73,8.52,2.73s6.95-1.27,8.52-2.73c2.04-1.9,2.4-4.2,2.46-4.99,6.99-4.16,8.59-11.9,8.93-14.41.06-.28.09-.57.09-.86v-.02c0-2.06-1.48-4.04-4.17-5.58-3.57-2.05-9.33-3.41-15.83-3.41s-12.26,1.36-15.83,3.41c-2.69,1.54-4.17,3.52-4.17,5.58h0Zm11.29,16.43c.25.71.71,1.59,1.55,2.38,1.31,1.23,3.51,2.2,7.16,2.2s5.85-.97,7.16-2.2c.85-.79,1.3-1.67,1.55-2.38-2.37.98-5.24,1.58-8.71,1.58s-6.34-.6-8.71-1.58h0Zm-8.11-11.45c1.77,4.71,6.13,11.03,16.82,11.03s15.05-6.32,16.82-11.03c-.31.22-.64.42-.99.62-3.36,1.93-8.64,3.24-14.66,3.4-.09.01-.18.02-.28,0,0,0-.02,0-.02,0-.29,0-.58,0-.87,0-6.5,0-12.26-1.36-15.83-3.41-.35-.2-.68-.41-.99-.62h0Zm18.72-2.35c-2.68.78-4.63,2.14-5.72,4.22,1.23.11,2.51.16,3.82.16h.13c.3-1.69.91-3.16,1.77-4.38h0Zm14.94-.23c-3.11-2.13-6.54-2.58-9.35-1.6-2.6.9-4.63,3.05-5.31,6.16.62-.03,1.24-.07,1.84-.13,0-.02,0-.04.01-.06,1.16-4.64,6.93-7.04,11.57-3.56.04.03.08.07.12.1.42-.29.8-.59,1.12-.91h0Zm-16.69-1.3c-4.42-.1-7.6,2.17-9.77,4.77,1.16.3,2.4.54,3.71.73,1.1-2.58,3.15-4.4,6.06-5.5h0Zm13.65,3.3c-3-1.78-6.47-.54-7.6,2.16,2.96-.44,5.56-1.19,7.6-2.16h0Zm-6.63-5.61c-2.92-1.94-7.39-2.11-11.58-1.19-4.52.99-8.78,3.26-10.41,6.26.9.52,1.96.99,3.13,1.39,3.16-4.13,8.43-7.87,16.47-5.38.64-.4,1.33-.72,2.05-.98.11-.04.23-.08.34-.11h0Zm10.83,1.18c-.02-1.46-1.26-2.73-3.17-3.82-3.34-1.92-8.75-3.14-14.83-3.14s-11.49,1.22-14.83,3.14c-1.91,1.1-3.15,2.36-3.17,3.82,0,.07.02.29.07.62.18.77.69,1.48,1.46,2.13,1.96-3.33,6.6-5.97,11.63-7.08,5.48-1.2,11.34-.56,14.55,2.64,0,.01.02.02.03.03,2.64-.17,5.5.57,8.17,2.38,0-.04.02-.07.03-.11.04-.33.06-.55.07-.62h0ZM13.97,9l29,1c.55.02,1.01-.41,1.03-.97.02-.55-.41-1.01-.97-1.03l-29-1c-.55-.02-1.01.41-1.03.97-.02.55.41,1.01.97,1.03h0Zm.03-3h29c.55,0,1-.45,1-1s-.45-1-1-1H14c-.55,0-1,.45-1,1s.45,1,1,1h0Z"></path></svg>