<svg xmlns="http://www.w3.org/2000/svg" viewBox="0 0 64 64" id="taco"><path d="M50 48.48572H19c-1.30408.01855-1.323 1.97742 0 2h31c1.30408-.01862 1.323-1.97748 0-2zM22 31.48572h5c1.31299-.02167 1.31555-1.97797 0-2h-5c-1.31299.02161-1.31555 1.97791 0 2zM30 28.48572h9c1.31177-.02124 1.31665-1.97784 0-2h-9c-1.31177.02124-1.31665 1.97778 0 2zM19 38.48572h13c1.3114-.02081 1.31689-1.97778 0-2h-13c-1.31055.02081-1.31763 1.97803 0 2zM36 33.48572c0 .55225.44727 1 1 1h10c.55273 0 1-.44775 1-1s-.44727-1-1-1h-10c-.55273 0-1 .44775-1 1zM29 34.48572h3c1.31372-.02185 1.31506-1.97803 0-2h-3c-1.31372.02179-1.31506 1.97797 0 2zM38 36.48572c-1.31348.02173-1.31531 1.97827 0 2h4c1.31335-.02142 1.31543-1.97797 0-2h-4z"></path><path d="M58.53003,31.7757c-5.73328-5.14594-.65234-13.65588-11.41003-13.73999-.92859-.66437-2.21204-.72717-3.20007-.16998-.32983-.04004-.63989-.09003-.93994-.16003C29.14661,1.35834,2.07788,11.07819,2,32.74597c0-.00024,0,5.19971,0,5.19971,0,2.76001,2.23999,5,5,5,.92993,.94,2.09009,1.83002,3.47998,2.63v3.91003c0,2.76001,2.23999,5,5,5H52c2.76001,0,5-2.23999,5-5v-3.17004h2c1.65002,0,3-1.34998,3-3v-5.82996c0-.73004-.27002-1.42004-.71997-1.95001-.61011-1.39001-1.68005-2.58002-2.75-3.76001Zm-14.25-11.84998c.66492-.3819,1.48755-.76672,1.97998,.09003,.02002,.02997,2.66992,5.40997,2.66992,5.40997,.18774,.36017,.11938,.8324-.16602,1.12756-2.47266-2.09869-5.38647-3.68921-8.58398-4.61224l4.1001-2.01532Zm-6.27002-2.72003c1.02002,.75,2.06006,1.52002,3.16992,2.01001-.84595,.48584-3.05286,1.26813-3.57227,2.14355-3.62329-.64447-7.62195-.3316-11.04785,.80713-.48474-1.12402-1.12183-2.27277-2.37341-2.5705,5.89026-1.81036,7.22009-7.98328,13.82361-2.3902Zm-13.33325,5.6637c-2.50696,1.06506-4.78833,2.5578-6.75513,4.3866l-.83472-1.69409c-.24414-.49316-.03906-1.09424,.4541-1.33936l5.38281-2.65088c.49512-.24219,1.09473-.03857,1.33887,.45508l.41406,.84265ZM4,37.94568v-5.19995c-.2998-14.61316,15.42456-25.33215,28.89001-19.84003-3.33606,.13708-5.91052,3.57098-8.78992,4.65009-3.0885,.97321-7.48499-.26709-10.16016,1.90991-2.80347,2.18616-2.38525,6.60999-3.78003,9.51001-2.24268,3.71881-7.07031,6.27869-4.87988,11.42999-.77002-.53998-1.28003-1.44-1.28003-2.46002Zm6.51001,5.32001c-4.41101-2.95911-5.10059-6.27148-1.02979-10.1499,2.04761-2.01978,3.25708-4.36578,3.64966-7.21021,.97144-6.0387,3.10791-5.80865,8.55383-5.9519l-5.02844,2.47589c-1.4834,.73535-2.09473,2.53857-1.36133,4.01855l1.14331,2.31915c-3.48462,3.88293-5.68872,8.93768-5.92725,14.49841Zm44.48999,6.22003c0,1.64996-1.34998,3-3,3H15.47998c-1.6499,0-3-1.35004-3-3v-5.20001c-.06555-18.3382,22.08423-28.03497,35.47583-15.79999h-3.95581c-1.31396,.02191-1.3147,1.97803,0,2h5.89502c3.19604,3.72821,5.00378,8.40039,5.09497,13.40997,.02026-.27631,.0061,5.56769,.01001,5.59003Zm-.16992-15c-1.14502-2.45715-2.70947-4.68079-4.59814-6.58252,.82043-.88904,1.06116-2.21588,.49805-3.35748l-2.17993-4.42999c5.2749,.05432,4.21216,6.27069,6.03003,9.78009,.86572,1.66406,2.45288,3.11841,3.65991,4.5899h-3.40991Zm5.16992,8.82996c0,.55005-.44995,1-1,1h-2c-.00879-2.68103-.45435-5.38464-1.34998-7.82996,.88098,.05573,3.64832-.15393,3.91003,.16992,.27002,.19006,.43994,.49005,.43994,.83008v5.82996Z"></path></svg>