<svg xmlns="http://www.w3.org/2000/svg" viewBox="0 0 100 100" id="broccoli"><path d="M46.5 32c-.6 0-1-.4-1-1 0-2.1 1.7-3.8 3.8-3.8.6 0 1 .4 1 1s-.4 1-1 1c-1 0-1.8.8-1.8 1.8 0 .6-.4 1-1 1zm22.1 15.2c-.6 0-1-.4-1-1 0-2.1 1.7-3.8 3.8-3.8.6 0 1 .4 1 1s-.4 1-1 1c-1 0-1.8.8-1.8 1.8 0 .6-.4 1-1 1zM57 25.3c-.6 0-1-.4-1-1 0-2.1 1.7-3.8 3.8-3.8.6 0 1 .4 1 1s-.4 1-1 1c-1 0-1.8.8-1.8 1.8 0 .6-.5 1-1 1zm-7.8 24.9s-.1 0 0 0c-2.1-.1-3.7-1.9-3.6-4 0-.6.5-1 1.1-.9.6 0 1 .5.9 1.1-.1 1 .7 1.8 1.7 1.9.6 0 1 .5.9 1.1 0 .4-.5.8-1 .8zm-20.1-5.1c-2.1-.1-3.7-1.9-3.6-4 0-.6.5-1 1.1-.9.6 0 1 .5.9 1.1-.1 1 .7 1.8 1.7 1.9.6 0 1 .5.9 1.1 0 .4-.5.8-1 .8zm2.4-18.4c-.6 0-1-.4-1-1 0-2.1 1.7-3.8 3.8-3.8.6 0 1 .4 1 1s-.4 1-1 1c-1 0-1.8.8-1.8 1.8 0 .6-.4 1-1 1zm18.1 58c-.6 0-1-.4-1-1V63c0-.6.4-1 1-1s1 .4 1 1v20.7c0 .5-.5 1-1 1z"></path><path d="M73.4 37.1v-.5c0-2.8-1.4-5.2-3.6-6.7.4-1.2.6-2.3.6-3.6 0-6.2-5-11.3-11.3-11.3-.9 0-1.9.1-2.8.4-1.2-5-5.7-8.6-11-8.6-4.9 0-9.1 3.1-10.7 7.6h-.4c-5.5 0-10.1 4.5-10.1 10.1 0 2.2.7 4.2 1.9 5.9-4.4 1.7-7.4 6-7.4 10.8 0 6.4 5.2 11.6 11.6 11.6 1 0 2-.1 3-.4v23c0 9 7.3 16.3 16.3 16.3 1.3 0 2.6-.2 3.8-.5.1 0 .2 0 .3-.1 7-1.8 12.2-8.2 12.2-15.7v-20c1.3.6 2.7.9 4.1.9 5.5 0 9.9-4.5 9.9-9.9.1-4.2-2.6-7.9-6.4-9.3zm-3.5 17.3c-1.6 0-3.1-.5-4.4-1.4-.2-.1-.4-.2-.6-.2h-.1c-.6 0-1 .4-1 1v21.6c0 5.8-3.5 10.8-8.4 13l.4-.7c2.3-4.1 3.5-8.7 3.5-13.4v-2.2c0-.6-.4-1-1-1s-1 .4-1 1v2.2c0 4.3-1.1 8.6-3.3 12.4l-1.5 2.7c-.7.1-1.3.2-2 .3V87c0-.6-.4-1-1-1s-1 .4-1 1v2.7c-.5 0-1.1-.1-1.6-.2l-1.6-2.7C43.2 83 42 78.7 42 74.4v-2.2c0-.6-.4-1-1-1s-1 .4-1 1v2.2c0 4.7 1.2 9.3 3.5 13.4l.5 1c-5.2-2.1-8.9-7.2-8.9-13.2V50.9c0-.1-.1-.1-.1-.2-.2-.3-.5-.4-.8-.4h-.4c-1.1.5-2.3.7-3.6.7-5.3 0-9.6-4.3-9.6-9.6 0-4.3 2.8-8 6.9-9.2 1 .9 2.2 1.6 3.6 2.1h.3c.4 0 .8-.3 1-.7.2-.5-.1-1.1-.6-1.3-3.3-1.1-5.6-4.2-5.6-7.7 0-4.4 3.6-8.1 8.1-8.1s8.1 3.6 8.1 8.1c0 .6.4 1 1 1s1-.4 1-1c0-4.7-3.3-8.7-7.6-9.8 1.4-3.5 4.8-5.9 8.7-5.9 4.4 0 8.1 3.1 9.1 7.3-1.3.6-2.5 1.4-3.5 2.5-.4.4-.4 1 0 1.4.4.4 1 .4 1.4 0 1.8-1.9 4.1-2.9 6.7-2.9 5.1 0 9.3 4.1 9.3 9.3 0 .9-.1 1.8-.4 2.7-.8-.3-1.7-.4-2.6-.4-4.4 0-8 3.6-8 8 0 .6.4 1 1 1s1-.4 1-1c0-3.3 2.7-6 6-6s6 2.7 6 6c-.5-.1-.9-.1-1.4-.1-.9 0-1.8.1-2.6.3-.5.1-.8.7-.7 1.2.1.5.7.8 1.2.7.7-.2 1.4-.3 2.1-.3 4.4 0 7.9 3.6 7.9 7.9s-3.7 7.9-8.1 7.9z"></path><path d="M56.3 42.8c-.4-.3-1.1-.2-1.4.2-.3.4-.2 1.1.2 1.4 1.8 1.3 2.8 3.4 2.8 5.6 0 3.8-3.1 6.9-6.9 6.9-2.7 0-5.2-1.6-6.3-4-.2-.4-.6-.6-1-.6h-.6c-3.8 0-6.9-3.1-6.9-6.9s3.1-6.9 6.9-6.9c2.7 0 5.2 1.6 6.3 4 .2.5.8.7 1.3.5.5-.2.7-.8.5-1.3-1.5-3.1-4.6-5.2-8.1-5.2-4.9 0-8.9 4-8.9 8.9 0 5 4.1 9 9.1 8.9 1.6 2.8 4.6 4.6 7.8 4.6 4.9 0 8.9-4 8.9-8.9-.1-2.8-1.4-5.5-3.7-7.2z"></path></svg>